<svg width="24" height="24" viewBox="0 0 24 24" fill="none" xmlns="http://www.w3.org/2000/svg">
<path d="M11.3836 17.6768C11.4524 17.7767 11.5445 17.8584 11.6519 17.9148C11.7593 17.9713 11.8788 18.0008 12.0001 18.0008C12.1214 18.0008 12.2409 17.9713 12.3483 17.9148C12.4557 17.8584 12.5478 17.7767 12.6166 17.6768L19.3666 7.92675C19.4447 7.81429 19.4906 7.68257 19.4991 7.5459C19.5076 7.40924 19.4785 7.27284 19.415 7.15155C19.3514 7.03025 19.2558 6.92869 19.1386 6.85789C19.0214 6.7871 18.887 6.74979 18.7501 6.75H5.25011C5.11349 6.75057 4.97961 6.78836 4.86287 6.85932C4.74612 6.93029 4.65093 7.03173 4.58753 7.15275C4.52413 7.27376 4.49492 7.40977 4.50304 7.54615C4.51116 7.68253 4.5563 7.81411 4.63361 7.92675L11.3836 17.6768Z" fill="#0C0B0B"/>
</svg>
