<svg width="24" height="24" viewBox="0 0 24 24" fill="none" xmlns="http://www.w3.org/2000/svg">
<path fill-rule="evenodd" clip-rule="evenodd" d="M20.53 4.52997C20.6625 4.38779 20.7346 4.19975 20.7312 4.00545C20.7277 3.81114 20.649 3.62576 20.5116 3.48835C20.3742 3.35093 20.1888 3.27222 19.9945 3.26879C19.8002 3.26537 19.6122 3.33749 19.47 3.46997L3.47 19.47C3.39631 19.5386 3.33721 19.6214 3.29622 19.7134C3.25523 19.8054 3.23319 19.9047 3.23141 20.0054C3.22963 20.1061 3.24816 20.2062 3.28588 20.2996C3.3236 20.393 3.37974 20.4778 3.45096 20.549C3.52218 20.6202 3.60702 20.6764 3.7004 20.7141C3.79379 20.7518 3.89382 20.7703 3.99452 20.7686C4.09523 20.7668 4.19454 20.7447 4.28654 20.7038C4.37854 20.6628 4.46134 20.6037 4.53 20.53L7.377 17.683C8.744 18.327 10.317 18.75 12 18.75C14.684 18.75 17.09 17.673 18.82 16.345C19.687 15.68 20.403 14.938 20.909 14.209C21.401 13.5 21.75 12.723 21.75 12C21.75 11.277 21.4 10.5 20.909 9.79097C20.403 9.06197 19.687 8.32097 18.821 7.65497C18.5583 7.45297 18.281 7.25864 17.989 7.07197L20.53 4.52997ZM16.9 8.16097L15.129 9.93197C15.6065 10.6531 15.82 11.5171 15.7334 12.3776C15.6468 13.2382 15.2655 14.0423 14.6539 14.6539C14.0423 15.2654 13.2382 15.6468 12.3777 15.7334C11.5171 15.82 10.6531 15.6064 9.932 15.129L8.515 16.545C9.62052 17.0019 10.8038 17.2413 12 17.25C14.287 17.25 16.38 16.327 17.907 15.155C18.669 14.57 19.271 13.937 19.677 13.354C20.096 12.75 20.25 12.277 20.25 12C20.25 11.723 20.096 11.25 19.677 10.646C19.271 10.063 18.669 9.42997 17.907 8.84497C17.5937 8.6043 17.2587 8.3763 16.9 8.16097ZM11.029 14.031C11.4489 14.2315 11.9206 14.2969 12.3792 14.2182C12.8377 14.1396 13.2607 13.9206 13.5897 13.5916C13.9187 13.2626 14.1376 12.8397 14.2163 12.3811C14.2949 11.9225 14.2295 11.4508 14.029 11.031L11.029 14.031Z" fill="white"/>
<path d="M12 5.25C13.032 5.25 14.024 5.41 14.951 5.681C14.9916 5.69311 15.0283 5.71562 15.0575 5.74629C15.0867 5.77697 15.1074 5.81474 15.1175 5.85588C15.1276 5.89701 15.1268 5.94007 15.1151 5.98078C15.1035 6.0215 15.0814 6.05846 15.051 6.088L14.227 6.913C14.1966 6.94368 14.1589 6.96597 14.1173 6.97771C14.0758 6.98945 14.0319 6.99024 13.99 6.98C13.3373 6.82952 12.6698 6.75237 12 6.75C9.713 6.75 7.62 7.673 6.093 8.845C5.331 9.43 4.729 10.063 4.323 10.646C3.904 11.25 3.75 11.723 3.75 12C3.75 12.277 3.904 12.75 4.323 13.354C4.677 13.864 5.181 14.411 5.811 14.931C5.927 15.026 5.938 15.201 5.831 15.308L5.123 16.017C5.07964 16.061 5.02132 16.087 4.95962 16.09C4.89793 16.093 4.83738 16.0726 4.79 16.033C4.14601 15.5023 3.57476 14.889 3.091 14.209C2.6 13.5 2.25 12.723 2.25 12C2.25 11.277 2.6 10.5 3.091 9.791C3.597 9.062 4.313 8.321 5.179 7.655C6.91 6.327 9.316 5.25 12 5.25Z" fill="white"/>
<path d="M12 8.25C12.1187 8.25 12.2357 8.25533 12.351 8.266C12.548 8.285 12.619 8.52 12.48 8.66L11.267 9.872C10.9441 9.98393 10.6509 10.1676 10.4093 10.4092C10.1676 10.6509 9.98394 10.9441 9.87201 11.267L8.66001 12.48C8.52001 12.62 8.28501 12.548 8.26601 12.351C8.21714 11.8312 8.27735 11.3069 8.44278 10.8117C8.60822 10.3166 8.87523 9.86137 9.22673 9.47532C9.57822 9.08928 10.0065 8.78089 10.484 8.56989C10.9616 8.35889 11.4779 8.24994 12 8.25Z" fill="white"/>
</svg>
