<svg width="308" height="117" viewBox="0 0 308 117" fill="none" xmlns="http://www.w3.org/2000/svg">
<g clip-path="url(#clip0_108_1678)">
<rect width="308" height="117" rx="6" fill="#F6F6F6" fill-opacity="0.4"/>
<rect x="19" y="12" width="219" height="136" rx="4" fill="#FEFEFE"/>
<g opacity="0.8">
<rect x="40" y="24" width="66" height="15" rx="4" fill="#F6F6F6"/>
<path d="M47.9648 34.1133C46.3555 34.1133 45.3438 32.9883 45.3438 31.1797C45.3438 29.3828 46.3633 28.25 47.9648 28.25C49.2383 28.25 50.2109 29.0352 50.3789 30.1914H49.3828C49.2148 29.543 48.6602 29.125 47.9648 29.125C46.9961 29.125 46.375 29.9219 46.375 31.1797C46.375 32.4453 46.9922 33.2383 47.9688 33.2383C48.6797 33.2383 49.1992 32.875 49.3828 32.2539H50.3828C50.168 33.4102 49.2617 34.1133 47.9648 34.1133ZM52.6367 33.332C53.1875 33.332 53.6289 32.9648 53.6289 32.4648V32.1484L52.6719 32.207C52.2031 32.2383 51.9336 32.4492 51.9336 32.7773C51.9336 33.1172 52.2148 33.332 52.6367 33.332ZM52.3438 34.0664C51.543 34.0664 50.9609 33.5625 50.9609 32.8164C50.9609 32.082 51.5273 31.6406 52.5352 31.5781L53.6289 31.5156V31.2188C53.6289 30.7852 53.3359 30.5352 52.8555 30.5352C52.3945 30.5352 52.1016 30.7578 52.0391 31.1016H51.1367C51.1797 30.3281 51.8398 29.7734 52.8945 29.7734C53.9219 29.7734 54.5898 30.3164 54.5898 31.1484V34H53.6523V33.3398H53.6328C53.3945 33.7891 52.875 34.0664 52.3438 34.0664ZM56.3672 34H55.4414V29.8594H56.6797L57.9023 32.75H57.9336L59.1562 29.8594H60.375V34H59.4492V31.168H59.418L58.25 33.8086H57.5625L56.3945 31.168H56.3672V34ZM63.082 34.082C61.8672 34.082 61.0781 33.2734 61.0781 31.9297C61.0781 30.5938 61.875 29.7734 63.082 29.7734C64.2891 29.7734 65.0859 30.5898 65.0859 31.9297C65.0859 33.2734 64.2969 34.082 63.082 34.082ZM63.082 33.3125C63.6992 33.3125 64.0977 32.8125 64.0977 31.9297C64.0977 31.0508 63.6992 30.5469 63.082 30.5469C62.4688 30.5469 62.0664 31.0508 62.0664 31.9297C62.0664 32.8125 62.4648 33.3125 63.082 33.3125ZM68.4648 34V30.6094H66.7539V34H65.7852V29.8594H69.4375V34H68.4648ZM72.1445 34.082C70.9297 34.082 70.1406 33.2734 70.1406 31.9297C70.1406 30.5938 70.9375 29.7734 72.1445 29.7734C73.3516 29.7734 74.1484 30.5898 74.1484 31.9297C74.1484 33.2734 73.3594 34.082 72.1445 34.082ZM72.1445 33.3125C72.7617 33.3125 73.1602 32.8125 73.1602 31.9297C73.1602 31.0508 72.7617 30.5469 72.1445 30.5469C71.5312 30.5469 71.1289 31.0508 71.1289 31.9297C71.1289 32.8125 71.5273 33.3125 72.1445 33.3125ZM76.4219 34.082C75.4023 34.082 74.7188 33.5859 74.6406 32.7695H75.5859C75.6719 33.125 75.9688 33.3164 76.4219 33.3164C76.9219 33.3164 77.2031 33.0859 77.2031 32.75C77.2031 32.375 76.9414 32.2031 76.4219 32.2031H75.832V31.5312H76.4023C76.8438 31.5312 77.0742 31.3672 77.0742 31.0312C77.0742 30.7344 76.8594 30.5273 76.4102 30.5273C75.9844 30.5273 75.7031 30.7148 75.6484 31.0352H74.7266C74.8086 30.2539 75.4414 29.7734 76.4102 29.7734C77.4531 29.7734 78.0234 30.2227 78.0234 30.9336C78.0234 31.3516 77.7734 31.6992 77.375 31.8047V31.8359C77.8945 31.9609 78.168 32.3008 78.168 32.7656C78.168 33.5664 77.4883 34.082 76.4219 34.082ZM81.6055 34V32.2422H79.8555V34H78.8867V29.8594H79.8555V31.4922H81.6055V29.8594H82.5742V34H81.6055ZM84.9648 33.332C85.5156 33.332 85.957 32.9648 85.957 32.4648V32.1484L85 32.207C84.5312 32.2383 84.2617 32.4492 84.2617 32.7773C84.2617 33.1172 84.543 33.332 84.9648 33.332ZM84.6719 34.0664C83.8711 34.0664 83.2891 33.5625 83.2891 32.8164C83.2891 32.082 83.8555 31.6406 84.8633 31.5781L85.957 31.5156V31.2188C85.957 30.7852 85.6641 30.5352 85.1836 30.5352C84.7227 30.5352 84.4297 30.7578 84.3672 31.1016H83.4648C83.5078 30.3281 84.168 29.7734 85.2227 29.7734C86.25 29.7734 86.918 30.3164 86.918 31.1484V34H85.9805V33.3398H85.9609C85.7227 33.7891 85.2031 34.0664 84.6719 34.0664ZM90.4883 34V32.2422H88.7383V34H87.7695V29.8594H88.7383V31.4922H90.4883V29.8594H91.457V34H90.4883ZM93.2852 34H92.332V29.8594H93.2852V32.625H93.3164L95.1172 29.8594H96.0703V34H95.1172V31.2148H95.0859L93.2852 34ZM98.7305 30.5273C98.1836 30.5273 97.7891 30.9453 97.75 31.5234H99.6836C99.6641 30.9375 99.2891 30.5273 98.7305 30.5273ZM99.6875 32.7617H100.598C100.473 33.543 99.7461 34.082 98.7656 34.082C97.5234 34.082 96.7734 33.2656 96.7734 31.9453C96.7734 30.6367 97.5312 29.7734 98.7266 29.7734C99.9023 29.7734 100.637 30.5898 100.637 31.8477V32.1641H97.7422V32.2227C97.7422 32.8867 98.1484 33.332 98.7852 33.332C99.2383 33.332 99.582 33.1055 99.6875 32.7617Z" fill="#7D7D7D"/>
</g>
<path opacity="0.8" d="M50.958 60H49.5566V52.7402H49.5088L46.5352 59.9248H45.4004L42.4199 52.7402H42.3721V60H40.9775V50.1357H42.748L45.9404 57.9219H45.9951L49.1807 50.1357H50.958V60ZM55.8252 60.1367C53.7676 60.1367 52.4141 58.7217 52.4141 56.4043C52.4141 54.0938 53.7744 52.6787 55.8252 52.6787C57.876 52.6787 59.2363 54.0938 59.2363 56.4043C59.2363 58.7217 57.8828 60.1367 55.8252 60.1367ZM55.8252 58.9199C56.9873 58.9199 57.7324 58.0039 57.7324 56.4043C57.7324 54.8115 56.9805 53.8955 55.8252 53.8955C54.6699 53.8955 53.918 54.8115 53.918 56.4043C53.918 58.0039 54.6699 58.9199 55.8252 58.9199ZM63.1807 56.3975H64.4863V53.9707H63.1807C62.3398 53.9707 61.7998 54.4492 61.7998 55.2285C61.7998 55.9121 62.3467 56.3975 63.1807 56.3975ZM64.4863 60V57.5322H63.3926L61.6494 60H59.9814L61.9434 57.2793C60.9453 56.9854 60.3301 56.2402 60.3301 55.2354C60.3301 53.7383 61.4238 52.8086 63.1055 52.8086H65.9355V60H64.4863ZM75.0889 60V56.8691H71.835V60H70.3652V52.8086H71.835V55.707H75.0889V52.8086H76.5586V60H75.0889ZM81.2549 60.1367C79.1973 60.1367 77.8438 58.7217 77.8438 56.4043C77.8438 54.0938 79.2041 52.6787 81.2549 52.6787C83.3057 52.6787 84.666 54.0938 84.666 56.4043C84.666 58.7217 83.3125 60.1367 81.2549 60.1367ZM81.2549 58.9199C82.417 58.9199 83.1621 58.0039 83.1621 56.4043C83.1621 54.8115 82.4102 53.8955 81.2549 53.8955C80.0996 53.8955 79.3477 54.8115 79.3477 56.4043C79.3477 58.0039 80.0996 58.9199 81.2549 58.9199ZM88.9043 53.8818H87.3936V55.7686H88.7607C89.5947 55.7686 90.0117 55.4473 90.0117 54.8115C90.0117 54.2168 89.6221 53.8818 88.9043 53.8818ZM88.8564 56.8008H87.3936V58.9268H89.0205C89.8545 58.9268 90.3057 58.5576 90.3057 57.8672C90.3057 57.1562 89.8271 56.8008 88.8564 56.8008ZM85.9375 60V52.8086H89.2051C90.6064 52.8086 91.4541 53.5059 91.4541 54.6406C91.4541 55.3857 90.9209 56.0625 90.2305 56.1924V56.2471C91.1602 56.3701 91.7754 57.0264 91.7754 57.9287C91.7754 59.1934 90.8047 60 89.2461 60H85.9375ZM95.6104 58.9541C96.6426 58.9541 97.4492 58.2432 97.4492 57.3066V56.7393L95.6787 56.8486C94.7969 56.9102 94.2979 57.2998 94.2979 57.915C94.2979 58.5439 94.8174 58.9541 95.6104 58.9541ZM95.2002 60.123C93.792 60.123 92.8076 59.248 92.8076 57.9561C92.8076 56.6982 93.7715 55.9258 95.4805 55.8301L97.4492 55.7139V55.1602C97.4492 54.3604 96.9092 53.8818 96.0068 53.8818C95.1523 53.8818 94.6191 54.292 94.4893 54.9346H93.0947C93.1768 53.6357 94.2842 52.6787 96.0615 52.6787C97.8047 52.6787 98.9189 53.6016 98.9189 55.0439V60H97.5039V58.8174H97.4697C97.0527 59.6172 96.1436 60.123 95.2002 60.123ZM103.198 56.3975H104.504V53.9707H103.198C102.357 53.9707 101.817 54.4492 101.817 55.2285C101.817 55.9121 102.364 56.3975 103.198 56.3975ZM104.504 60V57.5322H103.41L101.667 60H99.999L101.961 57.2793C100.963 56.9854 100.348 56.2402 100.348 55.2354C100.348 53.7383 101.441 52.8086 103.123 52.8086H105.953V60H104.504ZM117.137 56.1855L120.206 60H118.374L115.729 56.6846H115.674V60H114.218V56.6846H114.17L111.524 60H109.72L112.769 56.2129L109.802 52.8086H111.559L114.17 55.8848H114.218V52.8086H115.674V55.8848H115.729L118.34 52.8086H120.083L117.137 56.1855ZM122.585 60H121.129V52.8086H122.585V57.8467H122.64L125.962 52.8086H127.418V60H125.962V54.9482H125.907L122.585 60ZM131.588 60.1367C129.906 60.1367 128.737 59.3096 128.607 57.9834H130.063C130.214 58.6055 130.761 58.9473 131.588 58.9473C132.531 58.9473 133.058 58.5098 133.058 57.874C133.058 57.1562 132.572 56.8281 131.595 56.8281H130.542V55.7412H131.574C132.401 55.7412 132.832 55.4268 132.832 54.7979C132.832 54.2441 132.436 53.8545 131.595 53.8545C130.802 53.8545 130.269 54.1963 130.173 54.7568H128.758C128.908 53.4785 129.981 52.6787 131.588 52.6787C133.331 52.6787 134.274 53.458 134.274 54.6543C134.274 55.3857 133.823 56.0078 133.126 56.1855V56.2402C134.042 56.4521 134.527 57.0469 134.527 57.8672C134.527 59.2344 133.372 60.1367 131.588 60.1367ZM140.55 60V56.8691H137.296V60H135.826V52.8086H137.296V55.707H140.55V52.8086H142.02V60H140.55ZM146.333 56.1855H145.089V58.8379H146.333C147.181 58.8379 147.728 58.3047 147.728 57.5117C147.728 56.7119 147.174 56.1855 146.333 56.1855ZM143.619 60V52.8086H145.089V55.0303H146.463C148.124 55.0303 149.197 55.9941 149.197 57.5117C149.197 59.0361 148.124 60 146.463 60H143.619Z" fill="black"/>
<g clip-path="url(#clip1_108_1678)">
<rect x="40" y="69" width="177" height="6" rx="3" fill="#524CFF" fill-opacity="0.1"/>
<rect x="40" y="80" width="126" height="6" rx="3" fill="#524CFF" fill-opacity="0.1"/>
<g opacity="0.8" filter="url(#filter0_f_108_1678)">
<rect x="53.3779" y="101.099" width="85.7002" height="13.0058" transform="rotate(-46.4012 53.3779 101.099)" fill="white" fill-opacity="0.8"/>
</g>
<g filter="url(#filter1_f_108_1678)">
<rect x="116.899" y="98.7582" width="85.7002" height="13.0058" transform="rotate(-47.5111 116.899 98.7582)" fill="white" fill-opacity="0.8"/>
</g>
</g>
<rect opacity="0.1" x="40" y="105" width="100" height="14" rx="2" fill="#524CFF"/>
<g opacity="0.1">
<rect x="187" y="105" width="14" height="14" rx="2" fill="#524CFF"/>
<rect x="203" y="105" width="14" height="14" rx="2" fill="#524CFF"/>
</g>
<g opacity="0.6">
<rect x="250" y="12" width="219" height="136" rx="4" fill="#FEFEFE"/>
<rect x="271" y="24" width="80" height="14" rx="4" fill="#524CFF" fill-opacity="0.2"/>
<rect x="271" y="44" width="177" height="19" rx="4" fill="#524CFF" fill-opacity="0.2"/>
<g clip-path="url(#clip2_108_1678)">
<rect x="271" y="67" width="177" height="6" rx="3" fill="#524CFF" fill-opacity="0.1"/>
<rect x="271" y="78" width="126" height="6" rx="3" fill="#524CFF" fill-opacity="0.1"/>
<g opacity="0.8" filter="url(#filter2_f_108_1678)">
<rect x="284.378" y="99.0995" width="85.7002" height="13.0058" transform="rotate(-46.4012 284.378 99.0995)" fill="white" fill-opacity="0.8"/>
</g>
</g>
<rect opacity="0.1" x="271" y="103" width="100" height="14" rx="2" fill="#524CFF"/>
</g>
</g>
<defs>
<filter id="filter0_f_108_1678" x="37.3779" y="23.0366" width="100.518" height="103.032" filterUnits="userSpaceOnUse" color-interpolation-filters="sRGB">
<feFlood flood-opacity="0" result="BackgroundImageFix"/>
<feBlend mode="normal" in="SourceGraphic" in2="BackgroundImageFix" result="shape"/>
<feGaussianBlur stdDeviation="8" result="effect1_foregroundBlur_108_1678"/>
</filter>
<filter id="filter1_f_108_1678" x="100.899" y="19.5621" width="99.4766" height="103.981" filterUnits="userSpaceOnUse" color-interpolation-filters="sRGB">
<feFlood flood-opacity="0" result="BackgroundImageFix"/>
<feBlend mode="normal" in="SourceGraphic" in2="BackgroundImageFix" result="shape"/>
<feGaussianBlur stdDeviation="8" result="effect1_foregroundBlur_108_1678"/>
</filter>
<filter id="filter2_f_108_1678" x="268.378" y="21.0366" width="100.518" height="103.032" filterUnits="userSpaceOnUse" color-interpolation-filters="sRGB">
<feFlood flood-opacity="0" result="BackgroundImageFix"/>
<feBlend mode="normal" in="SourceGraphic" in2="BackgroundImageFix" result="shape"/>
<feGaussianBlur stdDeviation="8" result="effect1_foregroundBlur_108_1678"/>
</filter>
<clipPath id="clip0_108_1678">
<rect width="308" height="117" rx="6" fill="white"/>
</clipPath>
<clipPath id="clip1_108_1678">
<rect width="177" height="17" fill="white" transform="translate(40 69)"/>
</clipPath>
<clipPath id="clip2_108_1678">
<rect width="177" height="17" fill="white" transform="translate(271 67)"/>
</clipPath>
</defs>
</svg>
